<?xml version="1.0" encoding="iso-8859-1"?>
<svg xmlns="http://www.w3.org/2000/svg" viewBox="0 0 448 448" width="800px" height="800px">
  <!-- Seat body -->
  <path fill="#C0A6C9" stroke="#000" stroke-width="8"
    d="M396,164c-1.347,0-2.678,0.068-4,0.169V68c0-30.879-25.122-56-56-56H112
       c-30.878,0-56,25.121-56,56v96.169c-1.322-0.101-2.653-0.169-4-0.169c-28.673,0-52,23.327-52,52
       c0,17.936,9.079,34.304,24,43.815v105.518c0,0.358,0.032,0.709,0.078,1.055
       C25.318,387.335,42.746,404,64,404v8c0,13.233,10.766,24,24,24s24-10.767,24-24v-8h224v8
       c0,13.233,10.766,24,24,24s24-10.767,24-24v-8c21.254,0,38.682-16.665,39.922-37.612
       c0.046-0.346,0.078-0.697,0.078-1.055V259.815c14.921-9.512,24-25.88,24-43.815
       C448,187.327,424.673,164,396,164z"/>
</svg>

